<svg
   aria-hidden="true"
   focusable="false"
   width="16"
   height="16"
   fill="currentColor"
   class="bi bi-check-some-square"
   viewBox="0 0 16 16"
   version="1.1"
   id="svg6"
   xmlns="http://www.w3.org/2000/svg">
  <path
     d="M14 1a1 1 0 0 1 1 1v12a1 1 0 0 1-1 1H2a1 1 0 0 1-1-1V2a1 1 0 0 1 1-1h12zM2 0a2 2 0 0 0-2 2v12a2 2 0 0 0 2 2h12a2 2 0 0 0 2-2V2a2 2 0 0 0-2-2H2z"
     id="path2" />
  <path
     style="fill:none;stroke:#000000;stroke-width:1.4402px;stroke-linecap:round;stroke-linejoin:miter;stroke-opacity:1"
     d="m 3.7201021,7.9866693 8.5597969,0.00313"
     id="path233" />
</svg>
